<svg width="45" height="36" viewBox="0 0 45 36" fill="none" xmlns="http://www.w3.org/2000/svg">
<path d="M24.6938 0.337632C24.9188 0.197007 25.1578 0.1056 25.3969 0.0493504C25.7273 -0.0209621 26.0719 -0.0139309 26.3883 0.0563816C26.9297 0.182944 27.4289 0.513413 27.7523 1.01263L36.1828 13.6548C36.8016 14.5759 37.125 15.6658 37.125 16.7767V21.9447C37.125 22.4298 37.4344 22.8587 37.8914 23.0134L43.4602 24.8697C44.3812 25.172 45 26.0298 45 27.0001V33.7501C45 34.4462 44.6766 35.1072 44.1211 35.5361C43.5656 35.965 42.8484 36.1056 42.1734 35.9228L30.3047 32.7587C26.3672 31.7111 23.625 28.1392 23.625 24.0611V15.7501C23.625 14.5056 24.6305 13.5001 25.875 13.5001C27.1195 13.5001 28.125 14.5056 28.125 15.7501V21.3751C28.125 21.9939 28.6313 22.5001 29.25 22.5001C29.8687 22.5001 30.375 21.9939 30.375 21.3751V15.4056C30.375 14.9134 30.2484 14.4353 30.0023 14.0134L23.9273 3.38216C23.8078 3.17123 23.7234 2.95326 23.6742 2.72826C23.6039 2.39779 23.6039 2.05326 23.6812 1.73685C23.8148 1.17435 24.1594 0.6681 24.6867 0.337632H24.6938ZM20.3062 0.337632C20.8336 0.661069 21.1781 1.17435 21.3117 1.73685C21.3891 2.06029 21.3961 2.39779 21.3188 2.72826C21.2695 2.95326 21.1852 3.17123 21.0656 3.38216L14.9977 14.0134C14.7516 14.4353 14.625 14.9204 14.625 15.4056V21.3751C14.625 21.9939 15.1313 22.5001 15.75 22.5001Cnan nan 16.875 21.9939 16.875 21.3751V15.7501C16.875 14.5056 17.8805 13.5001 19.125 13.5001Cnan nan 21.375 14.5056 21.375 15.7501V24.0681C21.375 28.1462 18.6328 31.7111 14.6953 32.7658L2.83359 35.9298C2.15859 36.1126 1.43438 35.965 0.885938 35.5431Cnan nan 0 34.4533 0 33.7501V27.0001C0 26.0298 0.61875 25.172 1.53984 24.8626L7.10859 23.0064C7.56563 22.8517 7.875 22.4228 7.875 21.9376V16.7697C7.875 15.6587 8.20547 14.5759 8.81719 13.6478L17.2406 1.01966C17.5641 0.520444 18.0633 0.189975 18.6047 0.0634129C18.9281 -0.0139309 19.2656 -0.0209621 19.5961 0.0563816C19.8422 0.112632 20.0813 0.204038 20.2992 0.344663L20.3062 0.337632Z" fill="white"/>
</svg>
