<svg width="16" height="16" viewBox="0 0 16 16" fill="none" xmlns="http://www.w3.org/2000/svg">
<path d="M11.9375 5.15625C12.5416 5.15625 13.0312 4.66656 13.0312 4.0625C13.0312 3.45844 12.5416 2.96875 11.9375 2.96875C11.3334 2.96875 10.8438 3.45844 10.8438 4.0625C10.8438 4.66656 11.3334 5.15625 11.9375 5.15625Z" fill="white"/>
<path d="M8 4.5C7.30777 4.5 6.63108 4.70527 6.05551 5.08986C5.47993 5.47444 5.03133 6.02107 4.76642 6.66061C4.50152 7.30015 4.4322 8.00388 4.56725 8.68282C4.7023 9.36175 5.03564 9.98539 5.52513 10.4749C6.01461 10.9644 6.63825 11.2977 7.31719 11.4327C7.99612 11.5678 8.69985 11.4985 9.33939 11.2336C9.97893 10.9687 10.5256 10.5201 10.9101 9.9445C11.2947 9.36892 11.5 8.69223 11.5 8C11.5 7.07174 11.1313 6.1815 10.4749 5.52513C9.8185 4.86875 8.92826 4.5 8 4.5ZM8 9.75C7.65388 9.75 7.31554 9.64736 7.02775 9.45507C6.73997 9.26278 6.51567 8.98947 6.38321 8.6697C6.25076 8.34993 6.2161 7.99806 6.28363 7.65859C6.35115 7.31913 6.51782 7.00731 6.76257 6.76256C7.00731 6.51782 7.31913 6.35115 7.65859 6.28363C7.99806 6.2161 8.34993 6.25076 8.6697 6.38321C8.98947 6.51566 9.26278 6.73997 9.45507 7.02775C9.64737 7.31554 9.75 7.65388 9.75 8C9.75 8.46413 9.56563 8.90925 9.23744 9.23744C8.90925 9.56563 8.46413 9.75 8 9.75Z" fill="white"/>
<path d="M12.375 1H3.625C2.17525 1 1 2.17525 1 3.625V12.375C1 13.8247 2.17525 15 3.625 15H12.375C13.8247 15 15 13.8247 15 12.375V3.625C15 2.17525 13.8247 1 12.375 1Z" stroke="white" stroke-width="2" stroke-miterlimit="10"/>
</svg>
