<svg width="36" height="36" viewBox="0 0 36 36" fill="none" xmlns="http://www.w3.org/2000/svg">
<path d="M3.34687 21.1218L16.0523 32.9835C16.5797 33.4757 17.2758 33.7499 18 33.7499C18.7242 33.7499 19.4203 33.4757 19.9477 32.9835L32.6531 21.1218C34.7906 19.1319 36 16.3405 36 13.4225V13.0147C36 8.09989 32.4492 3.90926 27.6047 3.10067C24.3984 2.56629 21.1359 3.61395 18.8438 5.90614L18 6.74989L17.1562 5.90614C14.8641 3.61395 11.6016 2.56629 8.39531 3.10067C3.55078 3.90926 0 8.09989 0 13.0147V13.4225C0 16.3405 1.20937 19.1319 3.34687 21.1218Z" fill="white"/>
</svg>
